<?xml version="1.0" encoding="UTF-8" standalone="no"?><!DOCTYPE svg PUBLIC "-//W3C//DTD SVG 1.1//EN" "http://www.w3.org/Graphics/SVG/1.1/DTD/svg11.dtd"><svg width="100%" height="100%" viewBox="0 0 6142 9213" version="1.1" xmlns="http://www.w3.org/2000/svg" xmlns:xlink="http://www.w3.org/1999/xlink" xml:space="preserve" xmlns:serif="http://www.serif.com/" style="fill-rule:evenodd;clip-rule:evenodd;stroke-linecap:round;stroke-linejoin:round;stroke-miterlimit:1.5;"><rect id="Artboard1" x="0" y="0" width="6141.73" height="9212.6" style="fill:none;"/><g id="Filtered-seqs" serif:id="Filtered seqs"><ellipse cx="2268.16" cy="6945.1" rx="283.465" ry="94.488" style="fill:#ffd71a;"/><g transform="matrix(1,0,0,1,1512.25,6378.17)"><text x="587.754px" y="559.019px" style="font-family:'ArialMT', 'Arial', sans-serif;font-size:50px;">Clustered table</text><text x="687.864px" y="610.655px" style="font-family:'ArialMT', 'Arial', sans-serif;font-size:50px;">(QZA)</text></g></g><g id="Local-FASTQ-files" serif:id="Local FASTQ files"><ellipse cx="1701.23" cy="330.929" rx="283.465" ry="94.488" style="fill:#ff8b95;"/><g transform="matrix(1,0,0,1,945.323,-236)"><text x="555.832px" y="559.019px" style="font-family:'ArialMT', 'Arial', sans-serif;font-size:50px;stroke:#000;stroke-width:1px;">Local F<tspan x="717.038px 750.388px " y="559.019px 559.019px ">AS</tspan>TQ ﬁles</text><text x="657.297px" y="610.655px" style="font-family:'ArialMT', 'Arial', sans-serif;font-size:50px;stroke:#000;stroke-width:1px;">(F<tspan x="701.731px 735.08px " y="610.655px 610.655px ">AS</tspan>TQ)</text></g></g><g id="Accession-ID-list" serif:id="Accession ID list"><ellipse cx="3921.7" cy="330.929" rx="283.465" ry="94.488" style="fill:#ff8b95;"/><g transform="matrix(1,0,0,1,3165.8,-236)"><text x="572.519px" y="559.019px" style="font-family:'ArialMT', 'Arial', sans-serif;font-size:50px;stroke:#000;stroke-width:1px;">Accession ID list</text><text x="690.635px" y="610.655px" style="font-family:'ArialMT', 'Arial', sans-serif;font-size:50px;stroke:#000;stroke-width:1px;">(TSV)</text></g></g><g id="FASTQ-manifest" serif:id="FASTQ manifest"><ellipse cx="2740.6" cy="330.929" rx="283.465" ry="94.488" style="fill:#ff8b95;"/><g transform="matrix(1,0,0,1,1984.69,-236)"><text x="572.519px" y="559.019px" style="font-family:'ArialMT', 'Arial', sans-serif;font-size:50px;stroke:#000;stroke-width:1px;">F<tspan x="600.302px 633.652px " y="559.019px 559.019px ">AS</tspan>TQ manifest</text><text x="690.635px" y="610.655px" style="font-family:'ArialMT', 'Arial', sans-serif;font-size:50px;stroke:#000;stroke-width:1px;">(TSV)</text></g></g><g id="Accession-ID-artifact" serif:id="Accession ID artifact"><ellipse cx="3921.7" cy="1181.32" rx="283.465" ry="94.488" style="fill:#ebebeb;"/><g transform="matrix(1,0,0,1,3165.8,614.394)"><text x="528.049px" y="559.019px" style="font-family:'ArialMT', 'Arial', sans-serif;font-size:50px;stroke:#000;stroke-width:1px;">Accession ID artifact</text><text x="687.864px" y="610.655px" style="font-family:'ArialMT', 'Arial', sans-serif;font-size:50px;stroke:#000;stroke-width:1px;">(QZA)</text></g></g><g id="GENERATE_ID_ARTIFACT"><rect x="3307.53" y="519.906" width="1228.35" height="472.441" style="fill:#ebebeb;"/><g transform="matrix(1,0,0,1,945.323,-897.417)"><text x="2646.28px" y="1554.77px" style="font-family:'Arial-BoldMT', 'Arial', sans-serif;font-weight:700;font-size:50px;stroke:#000;stroke-width:1px;">GENERA<tspan x="2856.48px 2887.02px " y="1554.77px 1554.77px ">TE</tspan>_ID_ARTIF<tspan x="3170.42px 3206.53px " y="1554.77px 1554.77px ">AC</tspan>T()</text><text x="2421.26px" y="1650.61px" style="font-family:'AndaleMono', 'Andale Mono', monospace;font-size:45.833px;stroke:#000;stroke-width:1px;">qiime tools import \</text><text x="2512.2px" y="1696.44px" style="font-family:'AndaleMono', 'Andale Mono', monospace;font-size:45.833px;stroke:#000;stroke-width:1px;"><tspan x="2512.2px " y="1696.44px ">-</tspan>-input-path ${inp_id_ﬁle} \</text><text x="2512.2px" y="1742.27px" style="font-family:'AndaleMono', 'Andale Mono', monospace;font-size:45.833px;stroke:#000;stroke-width:1px;"><tspan x="2512.2px " y="1742.27px ">-</tspan>-output-path accession_id.qza \</text><text x="2512.2px" y="1788.11px" style="font-family:'AndaleMono', 'Andale Mono', monospace;font-size:45.833px;stroke:#000;stroke-width:1px;"><tspan x="2512.2px " y="1788.11px ">-</tspan>-type &apos;NCBIAccessionIDs&apos;</text></g></g><g id="GET_SRA_DATA"><rect x="3307.53" y="1370.3" width="1228.35" height="472.441" style="fill:#ebebeb;"/><g transform="matrix(1,0,0,1,945.323,-47.0236)"><text x="2762.02px" y="1554.77px" style="font-family:'Arial-BoldMT', 'Arial', sans-serif;font-weight:700;font-size:50px;stroke:#000;stroke-width:1px;">GET_SRA_DA<tspan x="3094.49px 3121.32px 3157.43px " y="1554.77px 1554.77px 1554.77px ">TA(</tspan>)</text><text x="2421.26px" y="1650.61px" style="font-family:'AndaleMono', 'Andale Mono', monospace;font-size:45.833px;stroke:#000;stroke-width:1px;">qiime fondue get-sequences \</text><text x="2512.2px" y="1696.44px" style="font-family:'AndaleMono', 'Andale Mono', monospace;font-size:45.833px;stroke:#000;stroke-width:1px;"><tspan x="2512.2px " y="1696.44px ">-</tspan>-i-accession-ids ${id_qza} \</text><text x="2512.2px" y="1742.27px" style="font-family:'AndaleMono', 'Andale Mono', monospace;font-size:45.833px;stroke:#000;stroke-width:1px;"><tspan x="2512.2px " y="1742.27px ">-</tspan>-p-email ${params.email_address} \</text><text x="2512.2px" y="1788.11px" style="font-family:'AndaleMono', 'Andale Mono', monospace;font-size:45.833px;stroke:#000;stroke-width:1px;"><tspan x="2512.2px " y="1788.11px ">-</tspan>-output-dir sra_download</text></g></g><g id="IMPORT_FASTQ"><rect x="1417.76" y="519.906" width="1606.3" height="472.441" style="fill:#ebebeb;"/><g transform="matrix(1,0,0,1,-944.441,-897.417)"><text x="2954.25px" y="1531.86px" style="font-family:'Arial-BoldMT', 'Arial', sans-serif;font-weight:700;font-size:50px;stroke:#000;stroke-width:1px;">IMPORT_F<tspan x="3204.27px 3240.38px " y="1531.86px 1531.86px ">AS</tspan>TQ()</text><text x="2421.26px" y="1627.69px" style="font-family:'AndaleMono', 'Andale Mono', monospace;font-size:45.833px;stroke:#000;stroke-width:1px;">qiime tools import \</text><text x="2512.2px" y="1673.52px" style="font-family:'AndaleMono', 'Andale Mono', monospace;font-size:45.833px;stroke:#000;stroke-width:1px;"><tspan x="2512.2px " y="1673.52px ">-</tspan>-type SampleData[PairedEndSequencesWithQuality] \</text><text x="2512.2px" y="1719.36px" style="font-family:'AndaleMono', 'Andale Mono', monospace;font-size:45.833px;stroke:#000;stroke-width:1px;"><tspan x="2512.2px " y="1719.36px ">-</tspan>-input-path ${fastq_manifest} \</text><text x="2512.2px" y="1765.19px" style="font-family:'AndaleMono', 'Andale Mono', monospace;font-size:45.833px;stroke:#000;stroke-width:1px;"><tspan x="2512.2px " y="1765.19px ">-</tspan>-input-format PairedEndFastqManifestPhred33V2 \</text><text x="2512.2px" y="1811.02px" style="font-family:'AndaleMono', 'Andale Mono', monospace;font-size:45.833px;stroke:#000;stroke-width:1px;"><tspan x="2512.2px " y="1811.02px ">-</tspan>-output-path sequences.qza</text></g></g><g id="FASTQ-artifact" serif:id="FASTQ artifact"><ellipse cx="2220.91" cy="1937.23" rx="283.465" ry="94.488" style="fill:#ebebeb;"/><g transform="matrix(1,0,0,1,1465.01,1370.3)"><text x="591.977px" y="559.019px" style="font-family:'ArialMT', 'Arial', sans-serif;font-size:50px;">F<tspan x="619.76px 653.11px " y="559.019px 559.019px ">AS</tspan>TQ artifact</text><text x="687.864px" y="610.655px" style="font-family:'ArialMT', 'Arial', sans-serif;font-size:50px;">(QZA)</text></g></g><g id="FASTQ-files" serif:id="FASTQ files"><ellipse cx="567.37" cy="2598.65" rx="283.465" ry="94.488" style="fill:#ebebeb;"/><g transform="matrix(1,0,0,1,-188.535,2031.72)"><text x="622.544px" y="559.019px" style="font-family:'ArialMT', 'Arial', sans-serif;font-size:50px;">F<tspan x="650.327px 683.677px " y="559.019px 559.019px ">AS</tspan>TQ ﬁles</text><text x="657.297px" y="610.655px" style="font-family:'ArialMT', 'Arial', sans-serif;font-size:50px;">(F<tspan x="701.731px 735.08px " y="610.655px 610.655px ">AS</tspan>TQ)</text></g></g><g id="FastQC-logs" serif:id="FastQC logs"><ellipse cx="567.37" cy="3260.06" rx="283.465" ry="94.488" style="fill:#ebebeb;"/><g transform="matrix(1,0,0,1,-188.535,2693.13)"><text x="616.977px" y="559.019px" style="font-family:'ArialMT', 'Arial', sans-serif;font-size:50px;">FastQC logs</text><text x="707.297px" y="610.655px" style="font-family:'ArialMT', 'Arial', sans-serif;font-size:50px;">(zip)</text></g></g><g id="Cutadapt-logs" serif:id="Cutadapt logs"><ellipse cx="1417.76" cy="3260.06" rx="283.465" ry="94.488" style="fill:#ebebeb;"/><g transform="matrix(1,0,0,1,661.858,2693.13)"><text x="601.633px" y="559.019px" style="font-family:'ArialMT', 'Arial', sans-serif;font-size:50px;">Cutadapt logs</text><text x="698.96px" y="610.655px" style="font-family:'ArialMT', 'Arial', sans-serif;font-size:50px;">(text)</text></g></g><g id="DADA2-stats" serif:id="DADA2 stats"><ellipse cx="1417.76" cy="4204.94" rx="283.465" ry="94.488" style="fill:#ebebeb;"/><g transform="matrix(1,0,0,1,661.858,3638.02)"><text x="612.802px" y="559.019px" style="font-family:'ArialMT', 'Arial', sans-serif;font-size:50px;">DADA2 stats</text><text x="687.864px" y="610.655px" style="font-family:'ArialMT', 'Arial', sans-serif;font-size:50px;">(QZA)</text></g></g><g id="Trimmed-sequences-1" serif:id="Trimmed sequences 1"><ellipse cx="2598.87" cy="3260.06" rx="283.465" ry="94.488" style="fill:#ebebeb;"/><g transform="matrix(1,0,0,1,1842.96,2693.13)"><text x="530.356px" y="559.019px" style="font-family:'ArialMT', 'Arial', sans-serif;font-size:50px;">T<tspan x="559.043px 575.693px " y="559.019px 559.019px ">ri</tspan>mmed sequences</text><text x="687.864px" y="610.655px" style="font-family:'ArialMT', 'Arial', sans-serif;font-size:50px;">(QZA)</text></g></g><g id="Primer-list" serif:id="Primer list"><ellipse cx="2976.82" cy="2220.69" rx="283.465" ry="94.488" style="fill:#ff8b95;"/><g transform="matrix(1,0,0,1,2220.91,1653.76)"><text x="644.797px" y="559.019px" style="font-family:'ArialMT', 'Arial', sans-serif;font-size:50px;">Primer list</text><text x="690.635px" y="610.655px" style="font-family:'ArialMT', 'Arial', sans-serif;font-size:50px;">(TSV)</text></g></g><path d="M1721.23,479.906l-20,40l-20,-40c10,10 30,10 40,-0Z"/><path d="M1701.23,425.417l0,62.489" style="fill:none;stroke:#000;stroke-width:3.33px;"/><path d="M2760.6,479.906l-20,40l-20,-40c10,10 30,10 40,-0Z"/><path d="M2740.6,425.417l0,62.489" style="fill:none;stroke:#000;stroke-width:3.33px;"/><path d="M3941.7,479.906l-20,40l-20,-40c10,10 30,10 40,-0Z"/><path d="M3921.7,425.417l-0,62.489" style="fill:none;stroke:#000;stroke-width:3.33px;"/><path d="M3941.7,1046.84l-20,40l-20,-40c10,10 30,10 40,-0Z"/><path d="M3921.7,992.346l-0,62.489" style="fill:none;stroke:#000;stroke-width:3.33px;"/><path d="M3941.7,1330.3l-20,40l-20,-40c10,10 30,10 40,0Z"/><path d="M3921.7,1275.81l-0,62.488" style="fill:none;stroke:#000;stroke-width:3.33px;"/><path d="M2544.38,1957.23l-40,-20l40,-20c-10,10 -10,30 -0,40Z"/><path d="M3921.7,1842.74l-0,94.488l-1385.32,0" style="fill:none;stroke:#000;stroke-width:3.33px;"/><path d="M2240.91,1802.74l-20,40l-20,-40c10,10 30,10 40,0Z"/><path d="M2220.91,992.346l0,818.394" style="fill:none;stroke:#000;stroke-width:3.33px;"/><g id="CHECK_FASTQ_TYPE"><rect x="189.417" y="2126.2" width="755.906" height="283.465" style="fill:#ebebeb;"/><g transform="matrix(1,0,0,1,-2172.79,708.882)"><text x="2458.18px" y="1529.03px" style="font-family:'Arial-BoldMT', 'Arial', sans-serif;font-weight:700;font-size:50px;stroke:#000;stroke-width:1px;">CHECK_F<tspan x="2691.55px 2727.66px " y="1529.03px 1529.03px ">AS</tspan>TQ_TYPE()</text><text x="2506.37px" y="1624.87px" style="font-family:'AndaleMono', 'Andale Mono', monospace;font-size:45.833px;stroke:#000;stroke-width:1px;">&lt;in-house script&gt;</text></g></g><g id="RUN_FASTQC"><rect x="189.417" y="2787.62" width="755.906" height="283.465" style="fill:#ebebeb;"/><g transform="matrix(1,0,0,1,-2172.79,1370.3)"><text x="2554.05px" y="1529.03px" style="font-family:'Arial-BoldMT', 'Arial', sans-serif;font-weight:700;font-size:50px;stroke:#000;stroke-width:1px;">RUN_F<tspan x="2717.97px 2754.07px " y="1529.03px 1529.03px ">AS</tspan>TQC()</text><text x="2478.87px" y="1624.87px" style="font-family:'AndaleMono', 'Andale Mono', monospace;font-size:45.833px;stroke:#000;stroke-width:1px;">&lt;QIIME-less FastQC&gt;</text></g></g><g id="FASTQ-artifact--unchanged" serif:id="FASTQ artifact, unchanged"><ellipse cx="2220.91" cy="2220.69" rx="283.465" ry="94.488" style="fill:#ebebeb;"/><g transform="matrix(1,0,0,1,1465.01,1653.76)"><text x="585.031px" y="533.201px" style="font-family:'ArialMT', 'Arial', sans-serif;font-size:50px;">F<tspan x="612.815px 646.164px " y="533.201px 533.201px ">AS</tspan>TQ artifact,</text><text x="632.175px" y="584.837px" style="font-family:'ArialMT', 'Arial', sans-serif;font-size:50px;">unchanged</text><text x="687.864px" y="636.473px" style="font-family:'ArialMT', 'Arial', sans-serif;font-size:50px;">(QZA)</text></g></g><path d="M587.37,2464.16l-20,40l-20,-40c10,10 30,10 40,0Z"/><path d="M567.37,2409.67l0,62.488" style="fill:none;stroke:#000;stroke-width:3.33px;"/><path d="M2240.91,2369.67l-20,40l-20,-40c10,10 30,10 40,0Z"/><path d="M2220.91,2315.18l0,62.488" style="fill:none;stroke:#000;stroke-width:3.33px;"/><path d="M2618.87,3409.04l-20,40l-20,-40c10,10 30,10 40,0Z"/><path d="M2598.87,3354.55l0,62.488" style="fill:none;stroke:#000;stroke-width:3.33px;"/><path d="M2618.87,3125.58l-20,40l-20,-40c10,10 30,10 40,-0Z"/><path d="M2598.87,2882.11l0,251.465" style="fill:none;stroke:#000;stroke-width:3.33px;"/><path d="M2996.82,2369.67l-20,40l-20,-40c10,10 30,10 40,0Z"/><path d="M2976.82,2315.18l-0,62.488" style="fill:none;stroke:#000;stroke-width:3.33px;"/><path d="M587.37,2747.62l-20,40l-20,-40c10,10 30,10 40,0Z"/><path d="M567.37,2693.13l0,62.488" style="fill:none;stroke:#000;stroke-width:3.33px;"/><path d="M587.37,3125.58l-20,40l-20,-40c10,10 30,10 40,-0Z"/><path d="M567.37,3071.09l0,62.488" style="fill:none;stroke:#000;stroke-width:3.33px;"/><path d="M587.37,4448.41l-20,40l-20,-40c10,10 30,10 40,0Z"/><path d="M567.37,3354.55l0,1101.86" style="fill:none;stroke:#000;stroke-width:3.33px;"/><path d="M1897.45,2200.69l40,20l-40,20c10,-10 10,-30 -0,-40Z"/><path d="M945.323,2220.69c-0,-0 790.069,-0 960.126,-0" style="fill:none;stroke:#000;stroke-width:3.33px;"/><path d="M587.37,2086.2l-20,40l-20,-40c10,10 30,10 40,-0Z"/><path d="M1937.45,1937.23l-1370.08,0l0,156.977" style="fill:none;stroke:#000;stroke-width:3.33px;"/><g id="CUTADAPT_TRIM"><rect x="1890.2" y="2409.67" width="1322.84" height="472.441" style="fill:#ebebeb;"/><g transform="matrix(1,0,0,1,-472,992.346)"><text x="2796.34px" y="1531.86px" style="font-family:'Arial-BoldMT', 'Arial', sans-serif;font-weight:700;font-size:50px;stroke:#000;stroke-width:1px;">CUT<tspan x="2895.39px 2931.5px " y="1531.86px 1531.86px ">AD</tspan>APT_TRIM()</text><text x="2421.26px" y="1627.69px" style="font-family:'AndaleMono', 'Andale Mono', monospace;font-size:45.833px;stroke:#000;stroke-width:1px;">qiime cutadapt trim-paired \</text><text x="2512.2px" y="1673.52px" style="font-family:'AndaleMono', 'Andale Mono', monospace;font-size:45.833px;stroke:#000;stroke-width:1px;"><tspan x="2512.2px " y="1673.52px ">-</tspan>-i-demultiplexed-sequences ${fq} \</text><text x="2512.2px" y="1719.36px" style="font-family:'AndaleMono', 'Andale Mono', monospace;font-size:45.833px;stroke:#000;stroke-width:1px;"><tspan x="2512.2px " y="1719.36px ">.</tspan>..</text><text x="2512.2px" y="1765.19px" style="font-family:'AndaleMono', 'Andale Mono', monospace;font-size:45.833px;stroke:#000;stroke-width:1px;"><tspan x="2512.2px " y="1765.19px ">-</tspan>-o-trimmed-sequences out.qza \</text><text x="2512.2px" y="1811.02px" style="font-family:'AndaleMono', 'Andale Mono', monospace;font-size:45.833px;stroke:#000;stroke-width:1px;"><tspan x="2512.2px " y="1811.02px ">-</tspan>-verbose | tee ${id}.log</text></g></g><path d="M1741.23,3280.06l-40,-20l40,-20c-10,10 -10,30 0,40Z"/><path d="M2173.67,2882.11l0,377.953l-440.441,-0" style="fill:none;stroke:#000;stroke-width:3.33px;"/><g id="DENOISE_DADA2"><rect x="1890.2" y="3449.04" width="1322.84" height="566.929" style="fill:#ebebeb;"/><g transform="matrix(1,0,0,1,-472,2031.72)"><text x="2794.42px" y="1556.18px" style="font-family:'Arial-BoldMT', 'Arial', sans-serif;font-weight:700;font-size:50px;stroke:#000;stroke-width:1px;">DENOISE_DADA2()</text><text x="2421.26px" y="1652.02px" style="font-family:'AndaleMono', 'Andale Mono', monospace;font-size:45.833px;stroke:#000;stroke-width:1px;">qiime dada2 denoise-paired \</text><text x="2512.2px" y="1697.85px" style="font-family:'AndaleMono', 'Andale Mono', monospace;font-size:45.833px;stroke:#000;stroke-width:1px;"><tspan x="2512.2px " y="1697.85px ">-</tspan>-i-demultiplexed-seqs ${fq} \</text><text x="2512.2px" y="1743.68px" style="font-family:'AndaleMono', 'Andale Mono', monospace;font-size:45.833px;stroke:#000;stroke-width:1px;"><tspan x="2512.2px " y="1743.68px ">.</tspan>..</text><text x="2512.2px" y="1789.52px" style="font-family:'AndaleMono', 'Andale Mono', monospace;font-size:45.833px;stroke:#000;stroke-width:1px;"><tspan x="2512.2px " y="1789.52px ">-</tspan>-o-table table.qza \</text><text x="2512.2px" y="1835.35px" style="font-family:'AndaleMono', 'Andale Mono', monospace;font-size:45.833px;stroke:#000;stroke-width:1px;"><tspan x="2512.2px " y="1835.35px ">-</tspan>-o-representative-sequences seqs.qza \</text><text x="2512.2px" y="1881.18px" style="font-family:'AndaleMono', 'Andale Mono', monospace;font-size:45.833px;stroke:#000;stroke-width:1px;"><tspan x="2512.2px " y="1881.18px ">-</tspan>-o-denoising-stats stats.qza</text></g></g><g id="Representative-sequences" serif:id="Representative sequences"><ellipse cx="2362.65" cy="4204.94" rx="283.465" ry="94.488" style="fill:#ebebeb;"/><g transform="matrix(1,0,0,1,1606.74,3638.02)"><text x="608.591px" y="559.019px" style="font-family:'ArialMT', 'Arial', sans-serif;font-size:50px;">Feature table</text><text x="687.864px" y="610.655px" style="font-family:'ArialMT', 'Arial', sans-serif;font-size:50px;">(QZA)</text></g></g><g id="Filtered-seqs1" serif:id="Filtered seqs"><ellipse cx="2268.16" cy="5905.73" rx="283.465" ry="94.488" style="fill:#ebebeb;"/><g transform="matrix(1,0,0,1,1512.25,5338.8)"><text x="611.386px" y="559.019px" style="font-family:'ArialMT', 'Arial', sans-serif;font-size:50px;">Filtered table</text><text x="687.864px" y="610.655px" style="font-family:'ArialMT', 'Arial', sans-serif;font-size:50px;">(QZA)</text></g></g><g id="Feature-table" serif:id="Feature table"><ellipse cx="3071.31" cy="4204.94" rx="283.465" ry="94.488" style="fill:#ebebeb;"/><g transform="matrix(1,0,0,1,2315.4,3638.02)"><text x="587.754px" y="533.201px" style="font-family:'ArialMT', 'Arial', sans-serif;font-size:50px;">Representative</text><text x="634.983px" y="584.837px" style="font-family:'ArialMT', 'Arial', sans-serif;font-size:50px;">sequences</text><text x="687.864px" y="636.473px" style="font-family:'ArialMT', 'Arial', sans-serif;font-size:50px;">(QZA)</text></g></g><path d="M2382.65,4070.46l-20,40l-20,-40c10,10 30,10 40,-0Z"/><path d="M2362.65,4015.97l-0,62.488" style="fill:none;stroke:#000;stroke-width:3.33px;"/><path d="M4319.65,5298.8l-20,40l-20,-40c10,10 30,10 40,0Z"/><path d="M4299.65,5244.32l-0,62.488" style="fill:none;stroke:#000;stroke-width:3.33px;"/><path d="M3091.31,4070.46l-20,40l-20,-40c10,10 30,10 40,-0Z"/><path d="M3071.31,4015.97l0,62.488" style="fill:none;stroke:#000;stroke-width:3.33px;"/><g id="Filtered-table" serif:id="Filtered table"><ellipse cx="2929.58" cy="5905.73" rx="283.465" ry="94.488" style="fill:#ebebeb;"/><g transform="matrix(1,0,0,1,2173.67,5338.8)"><text x="544.675px" y="559.019px" style="font-family:'ArialMT', 'Arial', sans-serif;font-size:50px;">Filtered sequences</text><text x="687.864px" y="610.655px" style="font-family:'ArialMT', 'Arial', sans-serif;font-size:50px;">(QZA)</text></g></g><path d="M2288.16,5771.24l-20,40l-20,-40c10,10 30,10 40,0Z"/><path d="M2268.16,5622.27l0,156.976" style="fill:none;stroke:#000;stroke-width:3.33px;"/><path d="M2949.58,5771.24l-20,40l-20,-40c10,10 30,10 40,0Z"/><path d="M2929.58,5622.27l-0,156.976" style="fill:none;stroke:#000;stroke-width:3.33px;"/><g id="Filtered-table1" serif:id="Filtered table"><ellipse cx="2929.58" cy="6945.1" rx="283.465" ry="94.488" style="fill:#ebebeb;"/><g transform="matrix(1,0,0,1,2173.67,6378.17)"><text x="521.042px" y="559.019px" style="font-family:'ArialMT', 'Arial', sans-serif;font-size:50px;">Clustered sequences</text><text x="687.864px" y="610.655px" style="font-family:'ArialMT', 'Arial', sans-serif;font-size:50px;">(QZA)</text></g></g><g id="Filtered-table2" serif:id="Filtered table"><ellipse cx="2551.62" cy="7889.98" rx="283.465" ry="94.488" style="fill:#ebebeb;"/><g transform="matrix(1,0,0,1,1795.72,7323.06)"><text x="641.965px" y="559.019px" style="font-family:'ArialMT', 'Arial', sans-serif;font-size:50px;">T<tspan x="666.965px 694.773px " y="559.019px 559.019px ">ax</tspan>onomy</text><text x="687.864px" y="610.655px" style="font-family:'ArialMT', 'Arial', sans-serif;font-size:50px;">(QZA)</text></g></g><path d="M2288.16,6810.61l-20,40l-20,-40c10,10 30,10 40,0Z"/><path d="M2268.16,6756.13l0,62.488" style="fill:none;stroke:#000;stroke-width:3.33px;"/><g id="Filtered-seqs2" serif:id="Filtered seqs"><ellipse cx="2551.62" cy="8834.87" rx="283.465" ry="94.488" style="fill:#ffd71a;"/><g transform="matrix(1,0,0,1,1795.72,8267.94)"><text x="583.567px" y="559.019px" style="font-family:'ArialMT', 'Arial', sans-serif;font-size:50px;">Collapsed table</text><text x="687.864px" y="610.655px" style="font-family:'ArialMT', 'Arial', sans-serif;font-size:50px;">(QZA)</text></g></g><path d="M2571.62,8700.38l-20,40l-20,-40c10,10 30,10 40,-0Z"/><path d="M2551.62,8645.89l0,62.488" style="fill:none;stroke:#000;stroke-width:3.33px;"/><path d="M2949.58,6810.61l-20,40l-20,-40c10,10 30,10 40,0Z"/><path d="M2929.58,6756.13l-0,62.488" style="fill:none;stroke:#000;stroke-width:3.33px;"/><path d="M1741.23,4224.94l-40,-20l40,-20c-10,10 -10,30 0,40Z"/><path d="M1984.69,4015.97l-0,188.976l-251.465,-0" style="fill:none;stroke:#000;stroke-width:3.33px;"/><g id="MULTIQC_STATS"><rect x="189.417" y="4488.41" width="755.906" height="283.465" style="fill:#ebebeb;"/><g transform="matrix(1,0,0,1,-2172.79,3071.09)"><text x="2519.36px" y="1529.03px" style="font-family:'Arial-BoldMT', 'Arial', sans-serif;font-weight:700;font-size:50px;stroke:#000;stroke-width:1px;">MUL<tspan x="2623.95px 2654.49px " y="1529.03px 1529.03px ">TI</tspan>QC_ST<tspan x="2831.37px 2863.77px 2894.31px " y="1529.03px 1529.03px 1529.03px ">ATS</tspan>()</text><text x="2465.11px" y="1624.87px" style="font-family:'AndaleMono', 'Andale Mono', monospace;font-size:45.833px;stroke:#000;stroke-width:1px;">&lt;QIIME-less MultiQC&gt;</text></g></g><g id="DOWNLOAD_REF_SEQS"><rect x="5197.29" y="3921.48" width="755.906" height="283.465" style="fill:#ebebeb;"/><g transform="matrix(1,0,0,1,2835.09,2504.16)"><text x="2426.25px" y="1529.03px" style="font-family:'Arial-BoldMT', 'Arial', sans-serif;font-weight:700;font-size:50px;stroke:#000;stroke-width:1px;">DOWNLOAD_REF_SEQS()</text><text x="2506.37px" y="1624.87px" style="font-family:'AndaleMono', 'Andale Mono', monospace;font-size:45.833px;stroke:#000;stroke-width:1px;">&lt;QIIME-less wget&gt;</text></g></g><path d="M729.102,4448.41l-20,40l-20,-40c10,10 30,10 40,0Z"/><path d="M1417.76,3354.55l-0,566.929l-708.662,0l0,534.929" style="fill:none;stroke:#000;stroke-width:3.33px;"/><path d="M870.835,4448.41l-20,40l-20,-40c10,10 30,10 40,0Z"/><path d="M1417.76,4299.43l-0,94.488l-566.929,0l-0,62.488" style="fill:none;stroke:#000;stroke-width:3.33px;"/><g id="MultiQC-log" serif:id="MultiQC log"><ellipse cx="567.37" cy="4960.85" rx="283.465" ry="94.488" style="fill:#ffd71a;"/><g transform="matrix(1,0,0,1,-188.535,4393.92)"><text x="625.315px" y="559.019px" style="font-family:'ArialMT', 'Arial', sans-serif;font-size:50px;">MultiQC log</text><text x="671.201px" y="610.655px" style="font-family:'ArialMT', 'Arial', sans-serif;font-size:50px;">(HTML)</text></g></g><path d="M587.37,4826.36l-20,40l-20,-40c10,10 30,10 40,0Z"/><path d="M567.37,4771.87l0,62.488" style="fill:none;stroke:#000;stroke-width:3.33px;"/><g id="FIND_CHIMERAS"><rect x="3590.99" y="4677.39" width="1228.35" height="566.929" style="fill:#ebebeb;"/><g transform="matrix(1,0,0,1,1228.79,3260.06)"><text x="2754.16px" y="1533.27px" style="font-family:'Arial-BoldMT', 'Arial', sans-serif;font-weight:700;font-size:50px;stroke:#000;stroke-width:1px;">FIND_CHIMERAS()</text><text x="2421.26px" y="1629.1px" style="font-family:'AndaleMono', 'Andale Mono', monospace;font-size:45.833px;stroke:#000;stroke-width:1px;">qiime vsearch uchime-ref \</text><text x="2512.2px" y="1674.93px" style="font-family:'AndaleMono', 'Andale Mono', monospace;font-size:45.833px;stroke:#000;stroke-width:1px;"><tspan x="2512.2px " y="1674.93px ">-</tspan>-i-sequences ${rep_seqs} \</text><text x="2512.2px" y="1720.77px" style="font-family:'AndaleMono', 'Andale Mono', monospace;font-size:45.833px;stroke:#000;stroke-width:1px;"><tspan x="2512.2px " y="1720.77px ">-</tspan>-i-table ${table} \</text><text x="2512.2px" y="1766.6px" style="font-family:'AndaleMono', 'Andale Mono', monospace;font-size:45.833px;stroke:#000;stroke-width:1px;"><tspan x="2512.2px " y="1766.6px ">-</tspan>-i-reference-sequences ${ref_otus} \</text><text x="2512.2px" y="1812.43px" style="font-family:'AndaleMono', 'Andale Mono', monospace;font-size:45.833px;stroke:#000;stroke-width:1px;"><tspan x="2512.2px " y="1812.43px ">.</tspan>..</text><text x="2512.2px" y="1858.27px" style="font-family:'AndaleMono', 'Andale Mono', monospace;font-size:45.833px;stroke:#000;stroke-width:1px;"><tspan x="2512.2px " y="1858.27px ">-</tspan>-o-nonchimeras nonchimeras.qza \</text><text x="2512.2px" y="1904.1px" style="font-family:'AndaleMono', 'Andale Mono', monospace;font-size:45.833px;stroke:#000;stroke-width:1px;"><tspan x="2512.2px " y="1904.1px ">-</tspan>-o-stats stats.qza</text></g></g><g id="FILTER_CHIMERAS"><rect x="1890.2" y="4771.87" width="1322.84" height="850.394" style="fill:#ebebeb;"/><g transform="matrix(1,0,0,1,-472,3354.55)"><text x="2774.1px" y="1533.33px" style="font-family:'Arial-BoldMT', 'Arial', sans-serif;font-weight:700;font-size:50px;stroke:#000;stroke-width:1px;">FIL<tspan x="2845.36px 2875.91px " y="1533.33px 1533.33px ">TE</tspan>R_CHIMERAS()</text><text x="2421.26px" y="1629.16px" style="font-family:'AndaleMono', 'Andale Mono', monospace;font-size:45.833px;stroke:#000;stroke-width:1px;">qiime feature-table ﬁlter-features \</text><text x="2512.2px" y="1675px" style="font-family:'AndaleMono', 'Andale Mono', monospace;font-size:45.833px;stroke:#000;stroke-width:1px;"><tspan x="2512.2px " y="1675px ">-</tspan>-i-table ${table} \</text><text x="2512.2px" y="1720.83px" style="font-family:'AndaleMono', 'Andale Mono', monospace;font-size:45.833px;stroke:#000;stroke-width:1px;"><tspan x="2512.2px " y="1720.83px ">-</tspan>-m-metadata-ﬁle ${nonchimera_qza} \</text><text x="2512.2px" y="1766.66px" style="font-family:'AndaleMono', 'Andale Mono', monospace;font-size:45.833px;stroke:#000;stroke-width:1px;"><tspan x="2512.2px " y="1766.66px ">-</tspan>-o-ﬁltered-table ﬁlt_table.qza</text><text x="2421.26px" y="1862.5px" style="font-family:'AndaleMono', 'Andale Mono', monospace;font-size:45.833px;stroke:#000;stroke-width:1px;">qiime feature-table ﬁlter-seqs \</text><text x="2512.2px" y="1908.33px" style="font-family:'AndaleMono', 'Andale Mono', monospace;font-size:45.833px;stroke:#000;stroke-width:1px;"><tspan x="2512.2px " y="1908.33px ">-</tspan>-i-data ${rep_seqs} \</text><text x="2512.2px" y="1954.16px" style="font-family:'AndaleMono', 'Andale Mono', monospace;font-size:45.833px;stroke:#000;stroke-width:1px;"><tspan x="2512.2px " y="1954.16px ">-</tspan>-m-metadata-ﬁle ${nonchimera_qza} \</text><text x="2512.2px" y="2000px" style="font-family:'AndaleMono', 'Andale Mono', monospace;font-size:45.833px;stroke:#000;stroke-width:1px;"><tspan x="2512.2px " y="2000px ">-</tspan>-o-ﬁltered-data ﬁlt_seqs.qza</text><text x="2421.26px" y="2095.83px" style="font-family:'AndaleMono', 'Andale Mono', monospace;font-size:45.833px;stroke:#000;stroke-width:1px;">qiime feature-table summarize \</text><text x="2512.2px" y="2141.66px" style="font-family:'AndaleMono', 'Andale Mono', monospace;font-size:45.833px;stroke:#000;stroke-width:1px;"><tspan x="2512.2px " y="2141.66px ">-</tspan>-i-table ﬁlt_table.qza \</text><text x="2512.2px" y="2187.5px" style="font-family:'AndaleMono', 'Andale Mono', monospace;font-size:45.833px;stroke:#000;stroke-width:1px;"><tspan x="2512.2px " y="2187.5px ">-</tspan>-o-visualization ﬁlt_table.qzv</text></g></g><g id="CLUSTER_CLOSED_OTU"><rect x="1890.2" y="6189.2" width="1511.81" height="566.929" style="fill:#ebebeb;"/><g transform="matrix(1,0,0,1,-472,4771.87)"><text x="2798.65px" y="1533.27px" style="font-family:'Arial-BoldMT', 'Arial', sans-serif;font-weight:700;font-size:50px;stroke:#000;stroke-width:1px;">CLUSTER_CLOSED_OTU()</text><text x="2421.26px" y="1629.1px" style="font-family:'AndaleMono', 'Andale Mono', monospace;font-size:45.833px;stroke:#000;stroke-width:1px;">qiime vsearch cluster-features-closed-reference \</text><text x="2512.2px" y="1674.93px" style="font-family:'AndaleMono', 'Andale Mono', monospace;font-size:45.833px;stroke:#000;stroke-width:1px;"><tspan x="2512.2px " y="1674.93px ">-</tspan>-i-table ${table} \</text><text x="2512.2px" y="1720.77px" style="font-family:'AndaleMono', 'Andale Mono', monospace;font-size:45.833px;stroke:#000;stroke-width:1px;"><tspan x="2512.2px " y="1720.77px ">-</tspan>-i-sequences ${sequences} \</text><text x="2512.2px" y="1766.6px" style="font-family:'AndaleMono', 'Andale Mono', monospace;font-size:45.833px;stroke:#000;stroke-width:1px;"><tspan x="2512.2px " y="1766.6px ">-</tspan>-i-reference-sequences ${ref_otus} \</text><text x="2512.2px" y="1812.43px" style="font-family:'AndaleMono', 'Andale Mono', monospace;font-size:45.833px;stroke:#000;stroke-width:1px;"><tspan x="2512.2px " y="1812.43px ">.</tspan>..</text><text x="2512.2px" y="1858.27px" style="font-family:'AndaleMono', 'Andale Mono', monospace;font-size:45.833px;stroke:#000;stroke-width:1px;"><tspan x="2512.2px " y="1858.27px ">-</tspan>-o-clustered-table clustered_table.qza \</text><text x="2512.2px" y="1904.1px" style="font-family:'AndaleMono', 'Andale Mono', monospace;font-size:45.833px;stroke:#000;stroke-width:1px;"><tspan x="2512.2px " y="1904.1px ">-</tspan>-o-clustered-sequences clustered_seqs.qza</text></g></g><g id="CLUSTER_CLOSED_OTU1" serif:id="CLUSTER_CLOSED_OTU"><rect x="1890.2" y="7228.57" width="1322.84" height="472.441" style="fill:#ebebeb;"/><g transform="matrix(1,0,0,1,-472,5811.24)"><text x="2726.86px" y="1531.86px" style="font-family:'Arial-BoldMT', 'Arial', sans-serif;font-weight:700;font-size:50px;stroke:#000;stroke-width:1px;">CLASSIFY_T<tspan x="3028.74px 3064.85px " y="1531.86px 1531.86px ">AX</tspan>ONOMY()</text><text x="2421.26px" y="1627.69px" style="font-family:'AndaleMono', 'Andale Mono', monospace;font-size:45.833px;stroke:#000;stroke-width:1px;">qiime feature-classiﬁer classify-sklearn \</text><text x="2512.2px" y="1673.52px" style="font-family:'AndaleMono', 'Andale Mono', monospace;font-size:45.833px;stroke:#000;stroke-width:1px;"><tspan x="2512.2px " y="1673.52px ">-</tspan>-i-classiﬁer ${classiﬁer} \</text><text x="2512.2px" y="1719.36px" style="font-family:'AndaleMono', 'Andale Mono', monospace;font-size:45.833px;stroke:#000;stroke-width:1px;"><tspan x="2512.2px " y="1719.36px ">-</tspan>-i-reads ${seqs} \</text><text x="2512.2px" y="1765.19px" style="font-family:'AndaleMono', 'Andale Mono', monospace;font-size:45.833px;stroke:#000;stroke-width:1px;"><tspan x="2512.2px " y="1765.19px ">.</tspan>..</text><text x="2512.2px" y="1811.02px" style="font-family:'AndaleMono', 'Andale Mono', monospace;font-size:45.833px;stroke:#000;stroke-width:1px;"><tspan x="2512.2px " y="1811.02px ">-</tspan>-o-classiﬁcation taxonomy.qza</text></g></g><g id="Reference-OTUs" serif:id="Reference OTUs"><ellipse cx="5575.24" cy="4393.92" rx="283.465" ry="94.488" style="fill:#ebebeb;"/><g transform="matrix(1,0,0,1,4819.34,3826.99)"><text x="568.344px" y="559.019px" style="font-family:'ArialMT', 'Arial', sans-serif;font-size:50px;">Reference OTUs</text><text x="687.864px" y="610.655px" style="font-family:'ArialMT', 'Arial', sans-serif;font-size:50px;">(QZA)</text></g></g><path d="M5595.24,4259.43l-20,40l-20,-40c10,10 30,10 40,0Z"/><path d="M5575.24,4204.94l0,62.488" style="fill:none;stroke:#000;stroke-width:3.33px;"/><g id="DOWNLOAD_REF_SEQS1" serif:id="DOWNLOAD_REF_SEQS"><rect x="3685.48" y="6472.66" width="850.394" height="283.465" style="fill:#ebebeb;"/><g transform="matrix(1,0,0,1,1323.28,5055.34)"><text x="2458.25px" y="1529.03px" style="font-family:'Arial-BoldMT', 'Arial', sans-serif;font-weight:700;font-size:50px;stroke:#000;stroke-width:1px;">DOWNLOAD_CLASSIFIER()</text><text x="2553.61px" y="1624.87px" style="font-family:'AndaleMono', 'Andale Mono', monospace;font-size:45.833px;stroke:#000;stroke-width:1px;">&lt;QIIME-less wget&gt;</text></g></g><g id="Reference-OTUs1" serif:id="Reference OTUs"><ellipse cx="4110.68" cy="6945.1" rx="283.465" ry="94.488" style="fill:#ebebeb;"/><g transform="matrix(1,0,0,1,3354.77,6378.17)"><text x="536.374px" y="559.019px" style="font-family:'ArialMT', 'Arial', sans-serif;font-size:50px;">Pretrained classiﬁer</text><text x="687.864px" y="610.655px" style="font-family:'ArialMT', 'Arial', sans-serif;font-size:50px;">(QZA)</text></g></g><path d="M4130.68,6810.61l-20,40l-20,-40c10,10 30,10 40,0Z"/><path d="M4110.68,6756.13l0,62.488" style="fill:none;stroke:#000;stroke-width:3.33px;"/><path d="M4555.87,4637.39l-20,40l-20,-40c10,10 30,10 40,-0Z"/><path d="M5291.78,4393.92l-755.906,0l0,251.465" style="fill:none;stroke:#000;stroke-width:3.33px;"/><g id="Chimera-stats" serif:id="Chimera stats"><ellipse cx="5197.29" cy="5433.29" rx="283.465" ry="94.488" style="fill:#ffd71a;"/><g transform="matrix(1,0,0,1,4441.39,4866.36)"><text x="601.694px" y="559.019px" style="font-family:'ArialMT', 'Arial', sans-serif;font-size:50px;">Chimera stats</text><text x="687.864px" y="610.655px" style="font-family:'ArialMT', 'Arial', sans-serif;font-size:50px;">(QZA)</text></g></g><g id="Nonchimeras"><g><ellipse cx="4299.65" cy="5433.29" rx="283.465" ry="94.488" style="fill:#ebebeb;"/><g transform="matrix(1,0,0,1,3543.75,4866.36)"><text x="608.628px" y="559.019px" style="font-family:'ArialMT', 'Arial', sans-serif;font-size:50px;">Nonchimeras</text><text x="687.864px" y="610.655px" style="font-family:'ArialMT', 'Arial', sans-serif;font-size:50px;">(QZA)</text></g></g></g><path d="M4873.83,5413.29l40,20l-40,20c10,-10 10,-30 -0,-40Z"/><path d="M4724.85,5244.32l0,188.976l156.977,0" style="fill:none;stroke:#000;stroke-width:3.33px;"/><path d="M4225.16,4637.39l-20,40l-20,-40c10,10 30,10 40,-0Z"/><path d="M3354.77,4204.94l850.393,-0l0,440.441" style="fill:none;stroke:#000;stroke-width:3.33px;"/><path d="M3894.46,4637.39l-20,40l-20,-40c10,10 30,10 40,-0Z"/><path d="M2646.11,4204.94l94.488,-0l0,188.976l1133.86,0l-0,251.465" style="fill:none;stroke:#000;stroke-width:3.33px;"/><path d="M2382.65,4731.87l-20,40l-20,-40c10,10 30,10 40,0Z"/><path d="M2362.65,4299.43l-0,440.441" style="fill:none;stroke:#000;stroke-width:3.33px;"/><path d="M3091.31,4731.87l-20,40l-20,-40c10,10 30,10 40,0Z"/><path d="M3071.31,4299.43l0,440.441" style="fill:none;stroke:#000;stroke-width:3.33px;"/><path d="M3185.8,4731.87l-20,40l-20,-40c10,10 30,10 40,0Z"/><path d="M4299.65,5536.37l-0,85.899l-927.703,-0l0,-944.882l-206.156,-0l0,62.488" style="fill:none;stroke:#000;stroke-width:3.33px;"/><g id="Chimera-stats-QZV" serif:id="Chimera stats QZV"><ellipse cx="5197.29" cy="5905.73" rx="283.465" ry="94.488" style="fill:#ffd71a;"/><g transform="matrix(1,0,0,1,4441.39,5338.8)"><text x="601.694px" y="559.019px" style="font-family:'ArialMT', 'Arial', sans-serif;font-size:50px;">Chimera stats</text><text x="687.864px" y="610.655px" style="font-family:'ArialMT', 'Arial', sans-serif;font-size:50px;">(QZV)</text></g></g><path d="M5217.29,5771.24l-20,40l-20,-40c10,10 30,10 40,0Z"/><path d="M3165.8,5622.27l0,94.488l2031.5,-0l0,62.488" style="fill:none;stroke:#000;stroke-width:3.33px;"/><path d="M3327.53,6149.2l-20,40l-20,-40c10,10 30,10 40,-0Z"/><path d="M5575.24,4488.41l0,1606.3l-2267.72,-0l-0,62.488" style="fill:none;stroke:#000;stroke-width:3.33px;"/><path d="M2288.16,6149.2l-20,40l-20,-40c10,10 30,10 40,-0Z"/><path d="M2268.16,6000.22l0,156.977" style="fill:none;stroke:#000;stroke-width:3.33px;"/><path d="M2949.58,6149.2l-20,40l-20,-40c10,10 30,10 40,-0Z"/><path d="M2929.58,6000.22l-0,156.977" style="fill:none;stroke:#000;stroke-width:3.33px;"/><path d="M2288.16,6149.2l-20,40l-20,-40c10,10 30,10 40,-0Z"/><path d="M2268.16,6000.22l0,156.977" style="fill:none;stroke:#000;stroke-width:3.33px;"/><path d="M2949.58,6149.2l-20,40l-20,-40c10,10 30,10 40,-0Z"/><path d="M2929.58,6000.22l-0,156.977" style="fill:none;stroke:#000;stroke-width:3.33px;"/><path d="M2949.58,7188.57l-20,40l-20,-40c10,10 30,10 40,-0Z"/><path d="M2929.58,7039.59l-0,156.976" style="fill:none;stroke:#000;stroke-width:3.33px;"/><path d="M2571.62,8133.45l-20,40l-20,-40c10,10 30,10 40,-0Z"/><path d="M2551.62,7984.47l0,156.977" style="fill:none;stroke:#000;stroke-width:3.33px;"/><path d="M2571.62,7755.5l-20,40l-20,-40c10,10 30,10 40,0Z"/><path d="M2551.62,7701.01l0,62.488" style="fill:none;stroke:#000;stroke-width:3.33px;"/><path d="M3091.31,7188.57l-20,40l-20,-40c10,10 30,10 40,-0Z"/><path d="M4110.68,7039.59l0,94.488l-1039.37,-0l0,62.488" style="fill:none;stroke:#000;stroke-width:3.33px;"/><g id="CLUSTER_CLOSED_OTU2" serif:id="CLUSTER_CLOSED_OTU"><rect x="1890.2" y="8173.45" width="1322.84" height="472.441" style="fill:#ebebeb;"/><g transform="matrix(1,0,0,1,-472,6756.13)"><text x="2790.75px" y="1531.86px" style="font-family:'Arial-BoldMT', 'Arial', sans-serif;font-weight:700;font-size:50px;stroke:#000;stroke-width:1px;">COLLAPSE_T<tspan x="3117.63px 3153.74px " y="1531.86px 1531.86px ">AX</tspan>A()</text><text x="2421.26px" y="1627.69px" style="font-family:'AndaleMono', 'Andale Mono', monospace;font-size:45.833px;stroke:#000;stroke-width:1px;">qiime taxa collapse \</text><text x="2512.2px" y="1673.52px" style="font-family:'AndaleMono', 'Andale Mono', monospace;font-size:45.833px;stroke:#000;stroke-width:1px;"><tspan x="2512.2px " y="1673.52px ">-</tspan>-i-table ${table} \</text><text x="2512.2px" y="1719.36px" style="font-family:'AndaleMono', 'Andale Mono', monospace;font-size:45.833px;stroke:#000;stroke-width:1px;"><tspan x="2512.2px " y="1719.36px ">-</tspan>-i-taxonomy ${taxonomy} \</text><text x="2512.2px" y="1765.19px" style="font-family:'AndaleMono', 'Andale Mono', monospace;font-size:45.833px;stroke:#000;stroke-width:1px;"><tspan x="2512.2px " y="1765.19px ">-</tspan>-p-level ${level} \</text><text x="2512.2px" y="1811.02px" style="font-family:'AndaleMono', 'Andale Mono', monospace;font-size:45.833px;stroke:#000;stroke-width:1px;"><tspan x="2512.2px " y="1811.02px ">-</tspan>-o-collapsed-table collapsed_table.qza</text></g></g><path d="M2288.16,8133.45l-20,40l-20,-40c10,10 30,10 40,-0Z"/><path d="M2268.16,7039.59l0,94.488l-472.44,-0l-0,944.882l472.44,-0l0,62.488" style="fill:none;stroke:#000;stroke-width:3.33px;"/></svg>